<svg id="SvgjsSvg1166" width="100%" height="100%" xmlns="http://www.w3.org/2000/svg" version="1.1" xlink="http://www.w3.org/1999/xlink" xmlns:svgjs="http://svgjs.com/svgjs" preserveAspectRatio="xMidYMid meet" viewBox="1.8406475987831072e-7 0.0000034577881251607323 300 67.76160430908203" overflow="visible"><defs id="SvgjsDefs1167"></defs><g id="SvgjsG1168" transform="scale(0.8823126342958717)" opacity="1"><g id="SvgjsG1169" class="oZJ80vqxBV" transform="translate(-10.970424918224648, -5.485208280477421) scale(0.8776339934579719)" light-content="false" non-strokable="false" fill="#468cfb"><path d="M33.332 6.25a2.084 2.084 0 0 0-2.082 2.082V12.5H14.582a2.084 2.084 0 0 0-2.082 2.082v77.082c0 1.148.934 2.082 2.082 2.082h39.582a2.084 2.084 0 0 0 2.082-2.082 2.084 2.084 0 0 0-2.082-2.082h-37.5V16.664h14.582v4.168c0 1.148.934 2.082 2.082 2.082H54.16a2.084 2.084 0 0 0 2.082-2.082v-4.168h14.582v37.5c0 1.148.934 2.082 2.082 2.082s2.082-.934 2.082-2.082V14.582a2.084 2.084 0 0 0-2.082-2.082H56.238V8.332a2.084 2.084 0 0 0-2.082-2.082H33.324zm2.082 4.168h16.668v8.332H35.414zm-12.5 18.75a2.084 2.084 0 0 0-2.082 2.082v8.332c0 1.148.934 2.082 2.082 2.082h8.332a2.084 2.084 0 0 0 2.082-2.082V31.25a2.084 2.084 0 0 0-2.082-2.082zm2.082 4.168h4.168v4.168h-4.168zm14.582 0a2.084 2.084 0 0 0-2.082 2.082c0 1.148.934 2.082 2.082 2.082h25a2.084 2.084 0 0 0 2.082-2.082 2.084 2.084 0 0 0-2.082-2.082zM22.91 50.004a2.084 2.084 0 0 0-2.082 2.082v8.332c0 1.148.934 2.082 2.082 2.082h8.332a2.084 2.084 0 0 0 2.082-2.082v-8.332a2.084 2.084 0 0 0-2.082-2.082zm2.082 4.168h4.168v4.168h-4.168zm14.582 0a2.084 2.084 0 0 0-2.082 2.082c0 1.148.934 2.082 2.082 2.082h25a2.084 2.084 0 0 0 2.082-2.082 2.084 2.084 0 0 0-2.082-2.082zm31.25 6.25c-9.2 0-16.668 7.469-16.668 16.668 0 9.2 7.469 16.668 16.668 16.668s16.668-7.469 16.668-16.668c0-9.2-7.469-16.668-16.668-16.668zm0 4.168c6.898 0 12.5 5.602 12.5 12.5s-5.602 12.5-12.5 12.5-12.5-5.602-12.5-12.5 5.602-12.5 12.5-12.5zm-47.918 6.25a2.084 2.084 0 0 0-2.082 2.082v8.332c0 1.148.934 2.082 2.082 2.082h8.332a2.084 2.084 0 0 0 2.082-2.082v-8.332a2.084 2.084 0 0 0-2.082-2.082zm54.168 0c-.535 0-1.066.203-1.473.61l-6.86 6.859-2.694-2.696a2.084 2.084 0 0 0-2.945 2.945l4.167 4.169a2.077 2.077 0 0 0 2.946 0l8.332-8.332a2.084 2.084 0 0 0-1.473-3.555zm-52.082 4.168h4.168v4.168h-4.168zm14.582 0a2.084 2.084 0 0 0-2.082 2.082c0 1.148.934 2.082 2.082 2.082h8.332a2.084 2.084 0 0 0 2.082-2.082 2.084 2.084 0 0 0-2.082-2.082z" fill-rule="evenodd"></path></g><g id="SvgjsG1170" class="text" transform="translate(217.70553168383867, 56.99999923706055) scale(1)" light-content="false" fill="#121212"><path d="M-110.01 -28.8L-110.01 0L-101.01 0L-101.01 -28.8L-89.13 -28.8L-89.13 -37.2L-121.89 -37.2L-121.89 -28.8Z M-83.07 -0.54L-73.71 0C-73.27 -2 -72.43 -5.36 -71.19 -10.08L-58.89 -10.08C-57.85 -5.6 -57.01 -2.24 -56.37 0L-47.01 -0.54C-48.65 -6.78 -50.5 -13.17 -52.56 -19.71C-54.62 -26.25 -56.65 -32.08 -58.65 -37.2L-71.43 -37.2C-73.43 -32.08 -75.46 -26.25 -77.52 -19.71C-79.58 -13.17 -81.43 -6.78 -83.07 -0.54ZM-61.11 -18.06L-69.03 -18.06C-67.87 -22.1 -66.69 -25.78 -65.49 -29.1L-64.59 -29.1C-63.31 -25.34 -62.15 -21.66 -61.11 -18.06Z M-37.11 -3C-32.99 -0.68 -28.05 0.48 -22.29 0.48C-17.09 0.48 -13.26 -0.49 -10.8 -2.43C-8.34 -4.37 -7.11 -7.1 -7.11 -10.62C-7.11 -13.18 -7.57 -15.25 -8.49 -16.83C-9.41 -18.41 -10.74 -19.62 -12.48 -20.46C-14.22 -21.3 -16.49 -22.02 -19.29 -22.62C-21.85 -23.18 -23.65 -23.75 -24.69 -24.33C-25.73 -24.91 -26.25 -25.78 -26.25 -26.94C-26.25 -28.1 -25.82 -28.9 -24.96 -29.34C-24.1 -29.78 -22.83 -30 -21.15 -30C-19.83 -30 -18.57 -29.9 -17.37 -29.7L-16.83 -25.32L-9.39 -25.32C-9.15 -26.04 -8.92 -27.24 -8.7 -28.92C-8.48 -30.6 -8.37 -31.92 -8.37 -32.88L-8.37 -34.98C-10.09 -35.82 -11.94 -36.5 -13.92 -37.02C-15.9 -37.54 -18.21 -37.8 -20.85 -37.8C-25.53 -37.8 -29.1 -36.82 -31.56 -34.86C-34.02 -32.9 -35.25 -30.16 -35.25 -26.64C-35.25 -23.96 -34.71 -21.82 -33.63 -20.22C-32.55 -18.62 -31.06 -17.38 -29.16 -16.5C-27.26 -15.62 -24.75 -14.8 -21.63 -14.04C-19.47 -13.52 -18.01 -13.01 -17.25 -12.51C-16.49 -12.01 -16.11 -11.24 -16.11 -10.2C-16.11 -9.24 -16.27 -8.42 -16.59 -7.74C-17.99 -7.46 -19.79 -7.32 -21.99 -7.32C-26.39 -7.32 -30.45 -8.3 -34.17 -10.26Z M28.44 -0.66C29.5 -0.02 30.99 0.3 32.91 0.3C34.99 0.3 36.71 0.12 38.07 -0.24L38.07 -5.28L35.49 -5.82L30.27 -13.8C29.23 -15.4 28.38 -16.51 27.72 -17.13C27.06 -17.75 26.03 -18.26 24.63 -18.66L24.63 -19.02C26.63 -19.7 28.09 -20.46 29.01 -21.3C29.93 -22.14 30.83 -23.54 31.71 -25.5L35.79 -34.92L27.15 -37.56L22.41 -26.22C21.89 -24.98 21.24 -24.09 20.46 -23.55C19.68 -23.01 18.47 -22.74 16.83 -22.74L14.25 -22.74L14.25 -37.2L5.31 -37.2L5.31 0L14.25 0L14.25 -14.52L17.19 -14.52C18.67 -14.52 19.74 -14.31 20.4 -13.89C21.06 -13.47 21.65 -12.68 22.17 -11.52L25.83 -3.72C26.51 -2.32 27.38 -1.3 28.44 -0.66Z M53.46 -1.11C56.2 0.03 60.09 0.6 65.13 0.6C69.97 0.6 74.11 0.16 77.55 -0.72L76.41 -8.76C73.13 -8 69.47 -7.62 65.43 -7.62C62.75 -7.62 60.39 -7.82 58.35 -8.22L58.35 -14.46L74.19 -14.46L74.19 -22.32L58.35 -22.32L58.35 -28.98L77.25 -28.98L77.25 -37.2L49.35 -37.2L49.35 -7.26C49.35 -4.3 50.72 -2.25 53.46 -1.11Z M112.89 -0.63C113.89 -0.01 115.31 0.3 117.15 0.3C119.47 0.3 121.19 0.12 122.31 -0.24L122.31 -5.28L119.91 -5.82L116.31 -10.74C115.43 -11.86 114.56 -12.73 113.7 -13.35C112.84 -13.97 111.81 -14.44 110.61 -14.76L110.61 -15.3C113.13 -16.5 115.06 -18.05 116.4 -19.95C117.74 -21.85 118.41 -24.06 118.41 -26.58C118.41 -30.34 117.06 -33.15 114.36 -35.01C111.66 -36.87 107.83 -37.8 102.87 -37.8C98.03 -37.8 93.81 -37.2 90.21 -36L90.21 0L99.15 0L99.15 -13.32L101.31 -13.32C102.55 -13.28 103.53 -13.07 104.25 -12.69C104.97 -12.31 105.51 -11.88 105.87 -11.4C106.23 -10.92 106.71 -10.14 107.31 -9.06L110.37 -3.48C111.05 -2.2 111.89 -1.25 112.89 -0.63ZM107.31 -20.58L99.15 -20.58L99.15 -29.58C100.27 -29.82 101.51 -29.94 102.87 -29.94C105.19 -29.94 106.88 -29.61 107.94 -28.95C109 -28.29 109.53 -27.14 109.53 -25.5C109.53 -23.3 108.79 -21.66 107.31 -20.58Z"></path></g></g></svg>
